# xmcd CD database file
#
# Track frame offsets:
#	182
#	16302
#	31942
#	49465
#	67277
#	80835
#	93797
#	106697
#	122355
#	137605
#
# Disc length: 2036 seconds
#
# Revision: 0
# Processed by: cddbd v1.5.2PL0 Copyright (c) Steve Scherf et al.
# Submitted via: CDex 1.51
#
DISCID=7e07f20a
DTITLE=Bourbon Gauthier - Camelback road
DYEAR=1994
DGENRE=Country
TTITLE0=calling the shots
TTITLE1=Highrise Blues
TTITLE2=camelback road
TTITLE3=finders keepers
TTITLE4=so long
TTITLE5=it's not easy killing time
TTITLE6=that's how it is
TTITLE7=sabotage
TTITLE8=it's good to know
TTITLE9=the heat is on
EXTD=YEAR: 1994
EXTT0=
EXTT1=
EXTT2=
EXTT3=
EXTT4=
EXTT5=
EXTT6=
EXTT7=
EXTT8=
EXTT9=
PLAYORDER=
